<svg xmlns="http://www.w3.org/2000/svg" xmlns:xlink="http://www.w3.org/1999/xlink" viewBox="0,0,256,256" width="48px" height="48px"><g fill="none" fill-rule="nonzero" stroke="none" stroke-width="1" stroke-linecap="butt" stroke-linejoin="miter" stroke-miterlimit="10" stroke-dasharray="" stroke-dashoffset="0" font-family="none" font-weight="none" font-size="none" text-anchor="none" style="mix-blend-mode: normal"><g transform="scale(5.33333,5.33333)"><path d="M44,30l-6,-3l-0.87,-5.348l3.87,-0.652l3,5l-3,-2z" fill="#212121"></path><path d="M37,27.8l3.012,-0.8c1.098,0 1.988,0.712 1.988,1.59c0.103,0 -0.534,6.412 -5,6.41z" fill="#fadb8b"></path><path d="M4,30l6,-3l0.87,-5.348l-3.87,-0.652l-3,5l3,-2z" fill="#212121"></path><path d="M11,35c-4.466,0.002 -5.103,-6.41 -5,-6.41c0,-0.878 0.89,-1.59 1.988,-1.59l3.012,0.8z" fill="#fadb8b"></path><path d="M24,13h-14v22.377c0,3.876 5.283,8.302 14,11.623c8.805,-3.354 14,-7.785 14,-11.623v-22.377z" fill="#f2cc84"></path><path d="M37,22l1,10l2,-10z" fill="#212121"></path><path d="M22,31h4c0,0 -1,2 -2,2c-1,0 -2,-2 -2,-2z" fill="#fadb8b"></path><circle cx="17" cy="28" r="4" fill="#ffffff"></circle><path d="M11,22l-1,10l-2,-10z" fill="#212121"></path><circle cx="17" cy="29" r="1" fill="#212121"></circle><circle cx="31" cy="28" r="4" fill="#ffffff"></circle><circle cx="31" cy="29" r="1" fill="#212121"></circle><path d="M14,35c1.314,4.632 5.293,8 10,8c4.707,0 8.686,-3.368 10,-8z" fill="#ffffff"></path><path d="M16.921,40h14.157c0.596,-0.596 1.125,-1.269 1.58,-2h-17.317c0.456,0.731 0.984,1.404 1.58,2z" fill="#f5f5f5"></path><path d="M17,20l-4,7l-1,-4l-2,9l-1,-12z" fill="#212121"></path><path d="M35,20l3,12v-12z" fill="#212121"></path><path d="M32.125,1h-16.25c-4.349,0 -7.875,3.526 -7.875,7.875v10.125h32v-10.125c0,-4.349 -3.526,-7.875 -7.875,-7.875z" fill="#ffb300"></path><rect x="8" y="11" width="32" height="8" fill="#dd2c00"></rect><path d="M20,20l5,9v-6l2,2v-5z" fill="#212121"></path><path d="M48,20l-7.984,-1h-32.043l-7.973,1v2h48z" fill="#ffb300"></path></g></g></svg>